<mxfile host="app.diagrams.net" modified="2023-12-18T04:06:33.575Z" agent="Mozilla/5.0 (Windows NT 10.0; Win64; x64) AppleWebKit/537.36 (KHTML, like Gecko) Chrome/120.0.0.0 Safari/537.36" version="22.1.11" etag="FyVrtoIlpDu6oLhNHzKp" type="github">
  <diagram name="第 1 页" id="haO-EWjMHRRsv0LRQRoD">
    <mxGraphModel>
      <root>
        <mxCell id="0" />
        <mxCell id="1" parent="0" />
      </root>
    </mxGraphModel>
  </diagram>
</mxfile>
